<svg xmlns="http://www.w3.org/2000/svg" width="480" height="150" viewBox="0 0 480 150">
  <defs>
    <linearGradient id="gbg" x1="0" y1="0" x2="0" y2="150" gradientUnits="userSpaceOnUse">
      <stop offset="0%" stop-color="#161b22"/>
      <stop offset="100%" stop-color="#0d1117"/>
    </linearGradient>
  </defs>
  <rect width="480" height="150" rx="8" fill="url(#gbg)" stroke="#30363d" stroke-width="1"/>
  <rect x="0" y="0" width="480" height="3" rx="1" fill="#A855F7"/>
  <rect x="16" y="20" width="44" height="24" rx="5" fill="#A855F7" opacity="0.14"/>
  <text x="38" y="36" text-anchor="middle" fill="#A855F7" font-size="11"
    font-family="ui-monospace,'SFMono-Regular',monospace" font-weight="700">C2</text>
  <text x="72" y="36" fill="#e6edf3" font-size="15"
    font-family="-apple-system,'Segoe UI',sans-serif" font-weight="700">&#xC74C;&#xC131;&#xBA85;&#xB839; &#xB3C4;&#xC6B0;&#xBBF8; &#xB85C;&#xBD07;</text>
  <rect x="418" y="22" width="46" height="20" rx="4" fill="#A855F7" opacity="0.13"/>
  <text x="441" y="35" text-anchor="middle" fill="#A855F7"
    font-size="9" font-family="ui-monospace,monospace" font-weight="600">LIVE</text>
  <text x="16" y="68" fill="#8b949e" font-size="12"
    font-family="-apple-system,'Segoe UI',sans-serif">Whisper STT + GPT &#xBA85;&#xB839; &#xD30C;&#xC2F1; &#xD611;&#xB3D9;&#xB85C;&#xBD07;</text>
  <line x1="16" y1="88" x2="464" y2="88" stroke="#21262d" stroke-width="1"/>
  <rect x="16" y="100" width="65" height="22" rx="4" fill="#A855F7" opacity="0.13"/>
  <text x="48" y="115" text-anchor="middle" fill="#A855F7" font-size="10" font-family="ui-monospace,monospace">Whisper</text>
  <rect x="89" y="100" width="59" height="22" rx="4" fill="#A855F7" opacity="0.13"/>
  <text x="118" y="115" text-anchor="middle" fill="#A855F7" font-size="10" font-family="ui-monospace,monospace">GPT-4o</text>
  <rect x="156" y="100" width="46" height="22" rx="4" fill="#A855F7" opacity="0.13"/>
  <text x="179" y="115" text-anchor="middle" fill="#A855F7" font-size="10" font-family="ui-monospace,monospace">ROS2</text>
  <rect x="210" y="100" width="130" height="22" rx="4" fill="#A855F7" opacity="0.13"/>
  <text x="275" y="115" text-anchor="middle" fill="#A855F7" font-size="10" font-family="ui-monospace,monospace">BehaviorTree.CPP</text>
  <text x="464" y="140" text-anchor="end" fill="#A855F7" font-size="9"
    font-family="ui-monospace,monospace" opacity="0.45">thatshoon.com</text>
</svg>