<svg xmlns="http://www.w3.org/2000/svg" width="800" height="116" viewBox="0 0 800 116">
  <defs>
    <linearGradient id="gbg" x1="0" y1="0" x2="800" y2="0" gradientUnits="userSpaceOnUse">
      <stop offset="0%" stop-color="#161b22"/>
      <stop offset="100%" stop-color="#0d1117"/>
    </linearGradient>
  </defs>
  <rect width="800" height="116" rx="8" fill="url(#gbg)" stroke="#30363d" stroke-width="1"/>
  <rect x="0" y="0" width="3" height="116" rx="1.5" fill="#4B39EF"/>
  <rect x="16" y="18" width="44" height="24" rx="5" fill="#4B39EF" opacity="0.14"/>
  <text x="38" y="34" text-anchor="middle" fill="#4B39EF" font-size="11"
    font-family="ui-monospace,'SFMono-Regular',monospace" font-weight="700">GR</text>
  <text x="72" y="34" fill="#e6edf3" font-size="15"
    font-family="-apple-system,'Segoe UI',sans-serif" font-weight="700">&#xC131;&#xC801;&#xAD00;&#xB9AC; &#xC2DC;&#xC2A4;&#xD15C;</text>
  <text x="72" y="54" fill="#8b949e" font-size="12"
    font-family="-apple-system,'Segoe UI',sans-serif">&#xD559;&#xC0DD; &#xC131;&#xC801; &#xC218;&#xC9D1; &#xCD9C;&#xACB0; &#xB9AC;&#xD3EC;&#xD2B8; &#xD1B5;&#xD569; &#xAD00;&#xB9AC;</text>
  <line x1="16" y1="70" x2="784" y2="70" stroke="#21262d" stroke-width="1"/>
  <rect x="284" y="88" width="72" height="20" rx="3" fill="#4B39EF" opacity="0.13"/><text x="320" y="101" text-anchor="middle" fill="#4B39EF" font-size="10" font-family="ui-monospace,monospace">FastAPI</text>
  <rect x="364" y="88" width="98" height="20" rx="3" fill="#4B39EF" opacity="0.13"/><text x="413" y="101" text-anchor="middle" fill="#4B39EF" font-size="10" font-family="ui-monospace,monospace">PostgreSQL</text>
  <rect x="470" y="88" width="59" height="20" rx="3" fill="#4B39EF" opacity="0.13"/><text x="499" y="101" text-anchor="middle" fill="#4B39EF" font-size="10" font-family="ui-monospace,monospace">React</text>
  <rect x="537" y="88" width="98" height="20" rx="3" fill="#4B39EF" opacity="0.13"/><text x="586" y="101" text-anchor="middle" fill="#4B39EF" font-size="10" font-family="ui-monospace,monospace">SQLAlchemy</text>
  <rect x="643" y="88" width="78" height="20" rx="3" fill="#4B39EF" opacity="0.13"/><text x="682" y="101" text-anchor="middle" fill="#4B39EF" font-size="10" font-family="ui-monospace,monospace">Alembic</text>
  <rect x="726" y="18" width="58" height="22" rx="4" fill="#4B39EF" opacity="0.13"/>
  <text x="755" y="33" text-anchor="middle" fill="#4B39EF" font-size="9" font-family="ui-monospace,monospace" font-weight="600" letter-spacing="1">LIVE</text>
  <text x="784" y="108" text-anchor="end" fill="#4B39EF" font-size="9" font-family="ui-monospace,monospace" opacity="0.4">thatshoon.com</text>
</svg>